<?xml version="1.0" standalone="no"?>
<!DOCTYPE svg PUBLIC "-//W3C//DTD SVG 20010904//EN"
 "http://www.w3.org/TR/2001/REC-SVG-20010904/DTD/svg10.dtd">
<svg version="1.0" xmlns="http://www.w3.org/2000/svg"
 width="593.000000pt" height="465.000000pt" viewBox="0 0 593.000000 465.000000"
 preserveAspectRatio="xMidYMid meet">

<g transform="translate(0.000000,465.000000) scale(0.100000,-0.100000)"
fill="#2563EB" stroke="none">
<path d="M895 4308 c-41 -15 -105 -56 -128 -82 -10 -12 -28 -41 -40 -66 l-22
-45 -3 -983 c-2 -618 1 -983 7 -980 5 1 66 37 135 78 l126 75 1 335 c1 184 3
570 4 857 4 588 1 569 78 604 40 18 83 19 1140 19 l1097 0 0 -192 c0 -106 3
-264 7 -351 7 -173 14 -195 76 -241 27 -20 43 -21 385 -26 l357 -5 3 -1363 c2
-1336 2 -1365 -18 -1408 -34 -78 22 -74 -962 -74 l-873 0 -50 -26 c-28 -15
-109 -60 -181 -101 l-131 -74 -287 -1 -287 -2 -29 30 c-16 16 -51 58 -77 92
-45 59 -63 73 -278 201 l-230 137 -3 -175 c-2 -142 0 -184 13 -218 21 -54 84
-119 143 -146 l47 -22 1640 0 1640 0 51 27 c27 14 67 45 87 67 71 79 67 -20
67 1607 0 804 -3 1475 -6 1491 -4 23 -122 147 -474 502 l-467 471 -1264 -1
c-877 0 -1273 -4 -1294 -11z"/>
<path d="M5361 3645 c-2 -51 -36 -167 -69 -231 -64 -126 -193 -201 -407 -237
-11 -2 10 -9 46 -15 239 -43 359 -147 414 -357 8 -32 15 -74 15 -93 0 -19 4
-31 10 -27 6 3 10 18 10 32 0 48 32 157 62 215 62 116 174 191 343 227 50 10
78 19 64 20 -44 2 -180 41 -232 67 -113 58 -185 161 -223 319 -9 39 -20 79
-25 90 -6 17 -8 15 -8 -10z"/>
<path d="M1354 3527 c-3 -8 -4 -45 -2 -83 l3 -69 743 -3 742 -2 0 85 0 85
-740 0 c-612 0 -742 -2 -746 -13z"/>
<path d="M1350 3005 l0 -75 1185 0 1186 0 -3 68 -3 67 -120 6 c-66 4 -598 7
-1182 8 l-1063 1 0 -75z"/>
<path d="M2033 2638 c-6 -7 -41 -137 -78 -288 -79 -327 -349 -1427 -405 -1656
-22 -89 -40 -170 -40 -181 0 -23 -11 -20 208 -49 115 -16 134 -16 146 -3 7 7
35 102 61 209 26 107 87 359 136 560 49 201 125 514 169 695 44 182 96 393
115 469 21 87 30 146 25 155 -7 13 -150 58 -311 97 -9 3 -21 -1 -26 -8z"/>
<path d="M4810 2585 c0 -28 -34 -68 -73 -85 l-38 -17 30 -12 c36 -16 66 -47
82 -86 l12 -30 8 29 c10 36 42 71 80 87 l30 12 -38 17 c-39 17 -73 57 -73 85
0 8 -4 15 -10 15 -5 0 -10 -7 -10 -15z"/>
<path d="M2706 2230 c-48 -58 -136 -197 -136 -217 0 -20 121 -106 587 -416 84
-56 153 -106 153 -110 0 -4 -34 -29 -75 -55 -68 -43 -272 -171 -510 -321 -49
-32 -150 -95 -222 -141 -73 -46 -133 -88 -133 -93 0 -5 35 -63 77 -129 52 -80
84 -120 99 -124 23 -6 174 85 739 441 182 115 345 216 438 273 77 47 107 83
107 132 0 22 -5 50 -11 64 -7 15 -77 69 -173 134 -843 570 -877 592 -898 592
-9 0 -28 -14 -42 -30z"/>
<path d="M1205 2171 c-145 -90 -429 -266 -510 -316 -374 -230 -527 -328 -544
-349 -7 -8 -15 -34 -18 -57 -9 -61 17 -102 91 -146 67 -40 298 -183 650 -403
298 -185 323 -200 346 -200 22 0 160 211 160 245 0 12 -8 29 -17 38 -18 15
-433 278 -610 386 -51 30 -93 58 -93 61 0 5 526 336 710 447 36 22 66 47 68
55 2 9 -30 69 -70 134 -65 105 -77 119 -103 122 -17 1 -43 -6 -60 -17z"/>
</g>
</svg>
